<svg id="Layer_1" data-name="Layer 1" xmlns="http://www.w3.org/2000/svg" viewBox="0 0 399.57 153.25"><defs><style>.cls-1{fill:#ededed;}</style></defs><path class="cls-1" d="M201.66,11.77q0,7.34-18,28.23T148.51,73.4q-12.93,28.34-26.69,41.36t-37.14,19q41.14,11,49.26,12.77a71.29,71.29,0,0,0,15.56,1.81q10.75,0,19.43-7.81a4,4,0,0,1,1.14-.51,1,1,0,0,1,.62.51c0,1.11-1.83,2.94-5.48,5.51q-10.12,6.94-29.46,7a135.89,135.89,0,0,1-27.29-2.68q-13.12-2.7-40-11.28a182.56,182.56,0,0,1-35.56,3.42q-32.46,0-32.46-9.93,0-9.32,24.81-9.31,19.23,0,57.37,9.93A59.05,59.05,0,0,0,102.84,120q8.85-8.73,22.3-29-30.81,26.88-57.6,26.88-18.2,0-29-10.75T27.73,78.05q0-28,26.52-53.15T110.35-.23q13.65,0,21.77,7t8.12,19q0,21.2-19.86,43.85T82,92.32a19,19,0,0,1-13.29-5,15.89,15.89,0,0,1-5.43-12.2,14.46,14.46,0,0,1,3.47-9.67A10.47,10.47,0,0,1,75,61.4q6.41,0,6.41,6.31a8.59,8.59,0,0,1-2.48,6.05,7.53,7.53,0,0,1-5.59,2.64q-5.07,0-4.86-4.66c.07-2-.17-3-.72-3-1.52,0-2.28,2.13-2.28,6.41A13.9,13.9,0,0,0,70.39,86a17.82,17.82,0,0,0,12.25,4.34q17.06,0,36.35-22.29t19.28-42A23.06,23.06,0,0,0,131,8.51q-7.29-6.87-18.66-6.88Q84.92,1.63,59.84,29T34.76,86.12q0,14,9,21.92t24.56,8A59.47,59.47,0,0,0,95,109.39q13.27-6.63,32.73-23.06Q144,59.14,151.3,48.58a174.1,174.1,0,0,1,16.86-20.47Q187.29,8,197.42,8.05,201.67,8.05,201.66,11.77ZM65,138q-36.29-11.48-49.31-11.48-13.55,0-13.54,6,0,8.07,31.73,8.06A171.86,171.86,0,0,0,65,138ZM199.9,11.77c0-1.52-.82-2.28-2.48-2.28q-7.65,0-21,15.62Q164.54,39.06,150,70.3a261.75,261.75,0,0,0,33.81-33.25Q199.91,18.18,199.9,11.77Z" transform="translate(-0.43 0.23)"/><path class="cls-1" d="M400,34.93a54.62,54.62,0,0,1-1.43,11.79q-1.43,6.41-2.76,6.41a.91.91,0,0,1-1-1,3.45,3.45,0,0,1,.2-.93,42.86,42.86,0,0,0,2.8-15.62q0-13-7.77-20.94T369.52,6.7Q352.45,6.7,334.34,18q14.48,10.76,14.47,25.13,0,23.06-31.33,27.4,25.75,9,25.75,33,0,17.79-15.15,31.13A51.94,51.94,0,0,1,292.66,148q-9.72,0-15.46-5t-5.74-13.6q0-13.23,12.15-26.21t24.46-13a15.23,15.23,0,0,1,11.17,4.29,14.85,14.85,0,0,1,4.34,11,27.53,27.53,0,0,1-2.48,10c-1.66,4-3,6-4,6-.76,0-1.14-.27-1.14-.82a3.22,3.22,0,0,1,.41-1.24q5.39-7.86,5.38-14.17a12.48,12.48,0,0,0-3.82-9.51,13.91,13.91,0,0,0-10-3.62q-11.65,0-22.8,12.3T274,129.55a15.27,15.27,0,0,0,4.64,11.38,15.87,15.87,0,0,0,11.56,4.54q15.8,0,29-15.35t13.16-33.76q0-17.17-16.55-25.24l-6,.73a41.15,41.15,0,0,1-5,.31q-7.86,0-7.86-2.59,0-1.86,6.52-1.86a54.88,54.88,0,0,1,12.3,1.86,32.66,32.66,0,0,0,17-11.58A30.7,30.7,0,0,0,339,39q0-10.33-8-18.71-22.65,17.37-42.61,58.94-12.3,25.55-22.54,37-9.93,11.07-28.23,20.17Q216,146.93,199.08,146.92q-13.86,0-23.06-6.36t-9.21-15.87a13.81,13.81,0,0,1,3.16-9.1,9.45,9.45,0,0,1,7.49-3.83q6.31,0,6.31,7a8.87,8.87,0,0,1-2.12,6,6.59,6.59,0,0,1-5.22,2.49c-3.58,0-5.31-1.87-5.17-5.59.07-1.51-.07-2.27-.41-2.27-1.11,0-1.66,1.82-1.66,5.48q0,8.58,8.43,14.27t21.25,5.68q22.65,0,41-16.75A106,106,0,0,0,253.78,113q5.89-7.9,27-40.17a269.87,269.87,0,0,1,24.61-31.33q14.37-15.93,24.1-22.65Q313.13,5,282.11,5.05q-43.63,0-75.9,31.54-26.47,25.85-26.47,48.7,0,11.58,7.45,18.41t20.16,6.82q20.79,0,43-20T272.5,51.79q0-15-15.41-15t-33,17.1Q206.43,71,206.42,86.07a9.13,9.13,0,0,0,2.48,6.41,7.68,7.68,0,0,0,5.79,2.69c1.17.2,1.76.48,1.76.82,0,.62-.66.93-2,.93a10.18,10.18,0,0,1-8.38-4.49,17.63,17.63,0,0,1-3.41-11q0-16,17.68-31.26t36.3-15.24q17.77,0,17.78,16.44,0,20.07-22.64,40.54t-44.68,20.47q-14.37,0-23-8.63T175.5,80.64q0-29.26,33-53.41T281.6,3.08q30.09,0,51.08,13.55Q351.61,4.84,369.29,4.84q13.86,0,22.28,8.27T400,34.93Z" transform="translate(-0.43 0.23)"/></svg>